<?xml version="1.0" encoding="utf-8"?>
<!-- Generator: Adobe Illustrator 26.5.0, SVG Export Plug-In . SVG Version: 6.00 Build 0)  -->
<svg version="1.1" id="Layer_1" xmlns="http://www.w3.org/2000/svg" xmlns:xlink="http://www.w3.org/1999/xlink" x="0px" y="0px"
	 viewBox="0 0 512 512" style="enable-background:new 0 0 512 512;" xml:space="preserve">
<style type="text/css">
	.st0{fill:#F76F00;}
</style>
<path class="st0" d="M469.3,266.7v-85.3h-42.7v-42.7H384v-21.3h42.7v-64h-64V96H320v42.7H192V96h-42.7V53.3h-64v64H128v21.3H85.3
	v42.7H42.7v85.3H0V416h64v-85.3h21.3V416H128v42.7h106.7v-64h-85.3v-21.3h213.3v21.3h-85.3v64H384V416h42.7v-85.3H448V416h64V266.7
	H469.3z M192,245.3h-64v-64h64V245.3z M384,245.3h-64v-64h64V245.3z"/>
</svg>
